<?xml version="1.0" encoding="UTF-8"?>
<!-- Generated by Pixelmator Pro 3.8 -->
<svg width="600" height="230" viewBox="0 0 600 230" xmlns="http://www.w3.org/2000/svg">
    <text id="anemoi" xml:space="preserve" x="251.825" y="87" font-family="Avenir" font-size="102" font-weight="800" fill="#00a5ae">anemoi</text>
    <text id="template" xml:space="preserve" x="254.0105" y="185" font-family="Avenir" font-size="81" font-weight="800" fill="#000000">template</text>
    <g id="Group-copy">
        <path id="Path" fill="none" stroke="#00a5ae" stroke-width="6.732349" stroke-linecap="round" d="M 6.448358 115.403435 C 6.448358 57.44458 53.449448 10.460922 111.427246 10.460922 C 169.406158 10.460922 216.407288 57.44458 216.407288 115.403435 C 216.407288 173.362289 169.406158 220.345947 111.427246 220.345947 C 53.449448 220.345947 6.448358 173.362289 6.448358 115.403435 Z"/>
        <path id="path1" fill="none" stroke="#00a5ae" stroke-width="4.93088" stroke-linecap="round" d="M 111.427574 10.460663 L 111.427574 115.148476"/>
        <path id="path2" fill="none" stroke="#00a5ae" stroke-width="4.93088" stroke-linecap="round" d="M 216.406891 115.148537 L 111.428032 115.148537"/>
        <path id="path3" fill="none" stroke="#00a5ae" stroke-width="4.93088" stroke-linecap="round" d="M 111.427574 220.346283 L 111.427574 115.14801"/>
        <path id="path4" fill="none" stroke="#00a5ae" stroke-width="4.93088" stroke-linecap="round" d="M 6.448358 115.148537 L 111.427246 115.148537"/>
        <path id="path5" fill="none" stroke="#00a5ae" stroke-width="6.530475" stroke-linecap="round" d="M 113.998337 89.657272 C 125.319397 77.145905 143.945267 56.95752 168.806335 56.95752 C 188.397858 56.95752 211.404984 65.718155 213.653732 94.569977 M 113.080795 67.919373 C 123.208397 56.776901 139.869797 38.796616 162.108246 38.796616 C 173.734589 38.796616 188.369583 43.543472 196.371246 53.357986 M 113.080795 43.889938 C 123.081184 34.132935 136.444153 24.235611 153.124374 24.235611 C 158.346359 24.235611 164.815994 25.138962 169.638626 28.112289 M 113.086884 113.376137 C 123.518661 102.294563 143.687546 75.763687 171.997452 75.763687 C 191.457291 75.763687 214.310791 84.524307 216.544022 113.376137 M 170.564713 89.446594 C 177.512238 87.88089 179.526413 92.225311 179.788559 95.645386 C 180.063995 99.254517 176.658279 102.59594 172.713898 103.5392 C 171.163132 103.910667 164.388138 104.663719 159.189423 100.195435 C 153.706406 95.48175 150.388046 77.410751 171.226135 75.764328"/>
        <path id="path6" fill="none" stroke="#00a5ae" stroke-width="6.522231" stroke-linecap="round" d="M 110.494041 117.765083 C 100.075478 128.832703 79.931999 155.330109 51.65789 155.330109 C 32.222565 155.330109 9.397981 146.58049 7.16755 117.765083 M 109.577698 141.454117 C 98.270912 153.949677 79.668549 174.11264 54.838902 174.11264 C 35.272141 174.11264 12.294003 165.361862 10.048121 136.547546 M 110.494041 163.164505 C 100.379257 174.292847 83.738892 192.250443 61.528519 192.250443 C 49.916847 192.250443 35.300297 187.509583 27.308771 177.707504 M 109.645264 187.163544 C 99.657532 196.909332 86.311432 206.793106 69.652267 206.793106 C 64.436882 206.793106 57.975414 205.8909 53.158829 202.921326 M 59.353222 140.869339 C 66.291962 142.433075 68.303642 138.094131 68.565453 134.678436 C 68.84053 131.073868 65.439117 127.736595 61.499683 126.794594 C 59.950855 126.423523 53.184471 125.671494 47.993389 130.134064 C 42.516193 134.841873 39.202061 152.890045 60.013832 154.534393"/>
        <path id="Path-copy-4" fill="none" stroke="#00a5ae" stroke-width="6.732349" stroke-linecap="round" d="M 188.289734 186.016418 C 164.034225 208.042053 131.51918 188.582443 130.634659 165.802673 C 130.146805 153.225708 135.126465 142.346771 147.088867 137.845047 C 157.075623 134.087463 169.648972 135.243286 176.906403 147.876053 C 181.216873 155.380066 182.651886 176.176208 166.172424 179.046844 M 164.347488 205.48204 C 136.24295 215.636856 113.080681 188.772598 113.080681 165.897919 C 113.080681 146.234222 119.938148 133.147385 135.111206 123.362938 C 178.492065 95.389679 222.368423 153.973633 186.198853 187.793015 M 163.28772 163.67807 C 164.96994 156.33696 159.737534 153.257751 156.06105 152.981049 C 152.181259 152.688721 148.454178 155.599503 147.440048 159.767654 C 147.041168 161.406586 145.220474 169.040024 151.554947 174.573761 C 155.923676 178.390442 160.939575 179.777252 166.17308 179.047638"/>
        <path id="path7" fill="none" stroke="#00a5ae" stroke-width="6.732349" stroke-linecap="round" d="M 40.148289 38.614197 C 17.992779 63.379425 37.567078 96.577545 60.481232 97.480637 C 73.132401 97.978745 84.075478 92.89447 88.603775 80.680801 C 92.38353 70.48407 91.220879 57.646637 78.513573 50.23671 C 70.965332 45.835617 50.046535 44.370514 47.158997 61.196274 M 20.567881 63.05957 C 10.352022 91.754578 37.174969 114.026932 60.184525 114.026932 C 79.964211 114.026932 93.329132 108.401825 103.171288 92.91011 C 131.30954 48.617798 72.380043 3.819519 38.361198 40.748962 M 62.618237 64.141602 C 70.002647 62.423965 73.100067 67.766296 73.378395 71.520096 C 73.672432 75.481339 70.744461 79.286667 66.55172 80.322159 C 64.903152 80.729431 57.224697 82.588379 51.658329 76.12088 C 47.819103 71.660233 46.424141 66.539001 47.158096 61.19548"/>
    </g>
</svg>
