<?xml version="1.0" encoding="UTF-8"?>
<!-- Generated by Pixelmator Pro 3.8 -->
<svg width="657" height="773" viewBox="0 0 657 773" xmlns="http://www.w3.org/2000/svg">
    <text id="anemoi" xml:space="preserve" x="93.619128" y="754" font-family="Avenir" font-size="136.280801" font-weight="800" fill="#00a5ae">anemoi</text>
    <g id="Group-copy">
        <path id="Path" fill="none" stroke="#00a5ae" stroke-width="20.335936" stroke-linecap="round" d="M 11.584294 328.47403 C 11.584294 153.471497 153.613724 11.607788 328.812927 11.607788 C 504.015533 11.607788 646.045044 153.471497 646.045044 328.47403 C 646.045044 503.476563 504.015533 645.340271 328.812927 645.340271 C 153.613724 645.340271 11.584294 503.476563 11.584294 328.47403 Z"/>
        <path id="path1" fill="none" stroke="#00a5ae" stroke-width="14.894361" stroke-linecap="round" d="M 328.813934 11.606995 L 328.813934 327.704193"/>
        <path id="path2" fill="none" stroke="#00a5ae" stroke-width="14.894361" stroke-linecap="round" d="M 646.043884 327.704376 L 328.815308 327.704376"/>
        <path id="path3" fill="none" stroke="#00a5ae" stroke-width="14.894361" stroke-linecap="round" d="M 328.813934 645.341248 L 328.813934 327.702789"/>
        <path id="path4" fill="none" stroke="#00a5ae" stroke-width="14.894361" stroke-linecap="round" d="M 11.584294 327.704376 L 328.812927 327.704376"/>
        <path id="path5" fill="none" stroke="#00a5ae" stroke-width="19.726149" stroke-linecap="round" d="M 336.582367 250.735352 C 370.792694 212.958191 427.076965 152.000854 502.202942 152.000854 C 561.405273 152.000854 630.928955 178.452942 637.724304 265.568909 M 333.809692 185.099365 C 364.413605 151.455505 414.761566 97.165283 481.962433 97.165283 C 517.095337 97.165283 561.319824 111.498108 585.499512 141.132324 M 333.809692 112.54425 C 364.029175 83.083679 404.409851 53.199463 454.814697 53.199463 C 470.594635 53.199463 490.144775 55.927063 504.718018 64.904785 M 333.828094 322.352753 C 365.351166 288.892761 426.298157 208.784668 511.845978 208.784668 C 570.650391 208.784668 639.709778 235.236755 646.458252 322.352753 M 507.516479 250.099243 C 528.510681 245.371704 534.597229 258.48938 535.389404 268.81604 C 536.22168 279.713531 525.930176 289.802734 514.010925 292.650818 C 509.324799 293.772461 488.851898 296.046234 473.142242 282.554565 C 456.573486 268.32193 446.54599 213.757874 509.515167 208.786621"/>
        <path id="path6" fill="none" stroke="#00a5ae" stroke-width="19.701244" stroke-linecap="round" d="M 325.99295 335.604828 C 294.509796 369.022705 233.639557 449.029694 148.199936 449.029694 C 89.469635 449.029694 20.497561 422.61087 13.757572 335.604828 M 323.223907 407.132172 C 289.056702 444.861572 232.843475 505.742188 157.812424 505.742188 C 98.684944 505.742188 29.248859 479.319855 22.462179 392.317139 M 325.99295 472.685089 C 295.427765 506.286285 245.143372 560.507935 178.027328 560.507935 C 142.938797 560.507935 98.770027 546.193237 74.620979 516.596619 M 323.42807 545.148438 C 293.246826 574.575073 252.91713 604.418457 202.575928 604.418457 C 186.815903 604.418457 167.290436 601.694336 152.735519 592.727905 M 171.453934 405.366455 C 192.421661 410.088013 198.50061 396.986908 199.291763 386.673462 C 200.123016 375.789764 189.844513 365.713104 177.940201 362.868805 C 173.259888 361.748383 152.813019 359.477661 137.126434 372.952087 C 120.575264 387.166962 110.560509 441.662109 173.450195 446.627075"/>
        <path id="Path-copy-4" fill="none" stroke="#00a5ae" stroke-width="20.335936" stroke-linecap="round" d="M 561.078552 541.684753 C 487.78244 608.189575 389.527435 549.432739 386.854492 480.650879 C 385.38031 442.675629 400.42804 409.827454 436.576416 396.234833 C 466.7547 384.889038 504.749237 388.379028 526.679993 426.522736 C 539.705505 449.180542 544.04187 511.972992 494.243744 520.640625 M 488.729034 600.459778 C 403.801849 631.12146 333.809357 550.006836 333.809357 480.938446 C 333.809357 421.565308 354.531464 382.050598 400.381927 352.507172 C 531.471619 268.043945 664.058594 444.933929 554.760193 547.049072 M 485.526611 474.235779 C 490.610016 452.069824 474.798553 442.772339 463.688812 441.93689 C 451.964752 441.05423 440.702118 449.843109 437.637604 462.428558 C 436.432251 467.377197 430.93042 490.425781 450.072113 507.134491 C 463.273682 518.658691 478.430908 522.846069 494.245667 520.643066"/>
        <path id="path7" fill="none" stroke="#00a5ae" stroke-width="20.335936" stroke-linecap="round" d="M 113.419853 96.614502 C 46.469608 171.391296 105.619865 271.630615 174.86261 274.357452 C 213.092316 275.86145 246.160477 260.509827 259.844208 223.631592 C 271.265991 192.843323 267.752655 154.081604 229.353333 131.707825 C 206.543793 118.419067 143.330704 113.9953 134.605042 164.799438 M 54.251133 170.425537 C 23.380516 257.068054 104.434967 324.31778 173.966003 324.31778 C 233.736908 324.31778 274.123474 307.333191 303.864807 260.557068 C 388.89389 126.819702 210.818832 -8.445496 108.019569 103.060303 M 181.320282 173.692627 C 203.634735 168.506348 212.994598 184.637207 213.835663 195.971497 C 214.724213 207.93219 205.876373 219.422058 193.206604 222.548706 C 188.224915 223.778381 165.021896 229.391357 148.201263 209.86322 C 136.599762 196.394653 132.38443 180.931458 134.60231 164.797058"/>
    </g>
    <text id="text1" visibility="hidden" xml:space="preserve" x="657" y="455" font-family="Avenir" font-size="390.701098" font-weight="800" fill="#00a5ae">anemoi</text>
</svg>
